<svg xmlns="http://www.w3.org/2000/svg" viewBox="0 0 960 168" role="img" aria-labelledby="title">
  <title id="title">Спортивная атрибутика: поле, мяч, теннисная ракетка и бассейн</title>
  <defs><pattern id="grass" width="12" height="12" patternUnits="userSpaceOnUse"><path d="M2 12 6 2m3 10 3-6" stroke="#62a693" stroke-width="1.2" opacity=".35"/></pattern><pattern id="sand" width="16" height="16" patternUnits="userSpaceOnUse"><circle cx="3" cy="5" r="1" fill="#a7a28e" opacity=".35"/><circle cx="12" cy="12" r="1" fill="#a7a28e" opacity=".35"/></pattern></defs>
  <path fill="#076156" d="M0 0h240v168H0z"/><path fill="url(#grass)" d="M0 0h240v168H0z"/><path d="M-12 104h255M128-8v190m0-97a53 53 0 1 0 106 0 53 53 0 1 0-106 0Z" fill="none" stroke="#d9eee3" stroke-width="4" opacity=".88"/>
  <path fill="#d2cfc0" d="M240 0h240v168H240z"/><path fill="url(#sand)" d="M240 0h240v168H240z"/><circle cx="360" cy="83" r="61" fill="#f8f6ed" stroke="#004741" stroke-width="3"/><path d="M360 23q-26 18-24 55 2 35 27 64m-56-95q45-6 65 24 18 25 8 66m34-91q-31-2-46 21-21 34-1 77m-59-11q35 11 61-7 30-20 36-54" fill="none" stroke="#c45b31" stroke-width="9" stroke-linecap="round"/><path d="M330 29q20 32 59 35m-72 71q26-30 64-24" fill="none" stroke="#004741" stroke-width="5"/>
  <path fill="#cd7650" d="M480 0h240v168H480z"/><path d="M477 136h246M505 14v153" stroke="#f7e5d4" stroke-width="4" opacity=".8"/><g transform="rotate(-24 606 82)" fill="none" stroke="#163c39" stroke-width="8"><ellipse cx="605" cy="59" rx="37" ry="53"/><path d="M605 112v68" stroke-linecap="round"/></g><g transform="rotate(-24 606 59)" stroke="#fff0de" stroke-width="1.3" opacity=".9"><path d="M574 37h63m-67 12h70m-70 12h70m-68 12h67m-61 12h54m-42-67v84m12-92v99m12-99v99m12-92v84"/></g>
  <path fill="#a9d4de" d="M720 0h240v168H720z"/><path d="M720 30q24-14 48 0t48 0 48 0 48 0 48 0m-240 40q24-14 48 0t48 0 48 0 48 0 48 0m-240 40q24-14 48 0t48 0 48 0 48 0 48 0m-240 40q24-14 48 0t48 0 48 0 48 0 48 0" fill="none" stroke="#f7fbf9" stroke-width="9" opacity=".85"/><path d="M739 8v154m202-154v154" stroke="#34799a" stroke-width="4" opacity=".6"/>
</svg>
